<?xml version="1.0" encoding="utf-8"?>
<!-- Generator: Adobe Illustrator 16.0.0, SVG Export Plug-In . SVG Version: 6.00 Build 0)  -->
<!DOCTYPE svg PUBLIC "-//W3C//DTD SVG 1.1//EN" "http://www.w3.org/Graphics/SVG/1.1/DTD/svg11.dtd">
<svg version="1.1" id="Layer_1" xmlns="http://www.w3.org/2000/svg" xmlns:xlink="http://www.w3.org/1999/xlink" x="0px" y="0px"
	 width="250px" height="150px" viewBox="0 0 250 150" enable-background="new 0 0 250 150" xml:space="preserve">
<polygon fill="#EFEFEF" points="0,0 121.673,60.973 0,150 "/>
<polygon fill="#EFEFEF" points="250,0 128.326,60.973 250,150 "/>
<path fill="#D6D3D2" d="M0,150c0,0,112.646-95.278,124.973-95.278S250,150,250,150H0z"/>
<path opacity="0.6" fill="#7F7F7F" d="M0,0c0,0,0.841,14.343,4.833,18.561C8.826,22.78,119.25,98.25,125,98.25
	s116.174-75.47,120.167-79.689C249.16,14.343,250,0,250,0H0z"/>
<path fill="#FFFFFF" d="M0,0c0,0,0.841,13.576,4.833,17.569S119.25,93,125,93s116.174-71.438,120.167-75.431S250,0,250,0H0z"/>
</svg>
