<?xml version="1.0" encoding="utf-8"?>
<!-- Generator: Adobe Illustrator 16.0.0, SVG Export Plug-In . SVG Version: 6.00 Build 0)  -->
<!DOCTYPE svg PUBLIC "-//W3C//DTD SVG 1.1//EN" "http://www.w3.org/Graphics/SVG/1.1/DTD/svg11.dtd">
<svg version="1.1" xmlns="http://www.w3.org/2000/svg" xmlns:xlink="http://www.w3.org/1999/xlink" x="0px" y="0px" width="250px"
	 height="150px" viewBox="0 0 250 150" enable-background="new 0 0 250 150" xml:space="preserve">
<g id="Layer_1" display="none">
	<polygon display="inline" fill="#EFEFEF" points="0,0 121.673,60.973 0,150 	"/>
	<polygon display="inline" fill="#EFEFEF" points="250,0 128.326,60.973 250,150 	"/>
	<path display="inline" fill="#D6D3D2" d="M0,150c0,0,112.646-95.278,124.973-95.278S250,150,250,150H0z"/>
	<path display="inline" opacity="0.6" fill="#7F7F7F" d="M0,0c0,0,0.841,14.343,4.833,18.561C8.826,22.78,119.25,98.25,125,98.25
		s116.174-75.47,120.167-79.689C249.16,14.343,250,0,250,0H0z"/>
	<path display="inline" fill="#FFFFFF" d="M0,0c0,0,0.841,13.576,4.833,17.569S119.25,93,125,93s116.174-71.438,120.167-75.431
		S250,0,250,0H0z"/>
</g>
<g id="Layer_2">
	<path fill="#E6E7E8" d="M75.232,66.574v1.449c0.689,0.175,1.196,0.793,1.196,1.537s-0.507,1.361-1.196,1.533v1.453
		c0.689,0.17,1.196,0.793,1.196,1.537c0,0.743-0.507,1.357-1.196,1.532v1.449c0.689,0.174,1.196,0.788,1.196,1.535
		c0,0.739-0.507,1.359-1.196,1.532v1.449c0.689,0.175,1.196,0.793,1.196,1.537c0,0.742-0.507,1.362-1.196,1.532v1.452
		c0.689,0.175,1.196,0.793,1.196,1.532c0,0.748-0.507,1.362-1.196,1.537v1.449c0.689,0.173,1.196,0.789,1.196,1.531
		c0,0.743-0.507,1.362-1.196,1.541v1.449c0.689,0.17,1.196,0.789,1.196,1.532c0,0.742-0.507,1.356-1.196,1.535v1.45
		c0.532,0.132,0.951,0.535,1.117,1.05h1.03c0.203-0.635,0.801-1.105,1.503-1.105c0.71,0,1.304,0.471,1.503,1.105h1.516
		c0.199-0.635,0.793-1.105,1.499-1.105c0.713,0,1.303,0.471,1.506,1.105h1.508c0.208-0.635,0.802-1.105,1.508-1.105
		s1.3,0.471,1.502,1.105h1.511c0.203-0.635,0.798-1.105,1.503-1.105c0.711,0,1.299,0.471,1.508,1.105h1.508
		c0.206-0.635,0.796-1.105,1.506-1.105c0.706,0,1.3,0.471,1.504,1.105h1.511c0.203-0.635,0.796-1.105,1.502-1.105
		c0.71,0,1.3,0.471,1.502,1.105h1.512c0.167-0.515,0.59-0.918,1.121-1.05v-1.45c-0.689-0.179-1.199-0.793-1.199-1.535
		c0-0.743,0.51-1.362,1.199-1.532v-1.449c-0.689-0.179-1.199-0.798-1.199-1.541c0-0.742,0.51-1.358,1.199-1.531V89.17
		c-0.689-0.175-1.199-0.789-1.199-1.537c0-0.739,0.51-1.357,1.199-1.532v-1.452c-0.689-0.17-1.199-0.79-1.199-1.532
		c0-0.744,0.51-1.362,1.199-1.537V80.13c-0.689-0.173-1.199-0.793-1.199-1.532c0-0.747,0.51-1.361,1.199-1.535v-1.449
		c-0.689-0.175-1.199-0.79-1.199-1.532c0-0.748,0.51-1.367,1.199-1.537v-1.453c-0.689-0.171-1.199-0.789-1.199-1.533
		s0.51-1.362,1.199-1.537v-1.449c-0.689-0.17-1.199-0.793-1.199-1.532h-1.404c-0.17,0.688-0.79,1.2-1.532,1.2
		s-1.362-0.511-1.537-1.2h-1.449c-0.17,0.688-0.793,1.2-1.532,1.2c-0.743,0-1.366-0.511-1.532-1.2h-1.452
		c-0.175,0.688-0.793,1.2-1.537,1.2c-0.743,0-1.362-0.511-1.532-1.2h-1.449c-0.173,0.688-0.793,1.2-1.536,1.2
		c-0.744,0-1.358-0.511-1.537-1.2h-1.449c-0.17,0.688-0.79,1.2-1.536,1.2c-0.739,0-1.359-0.511-1.529-1.2h-1.453
		c-0.174,0.688-0.793,1.2-1.536,1.2c-0.739,0-1.362-0.511-1.532-1.2h-0.921C76.428,65.781,75.921,66.404,75.232,66.574z"/>
	<rect x="77.417" y="67.404" fill="#9A2028" width="26.013" height="30.94"/>
	<g>
		<g>
			<path fill="#F1F2F2" d="M84.959,71.432l3.26,4.916c0.855,1.278,1.565,2.462,2.316,3.737h0.146
				c0.756-1.371,1.511-2.554,2.268-3.779l3.217-4.874h4.489l-7.801,11.065l8.042,11.821h-4.73l-3.354-5.157
				c-0.902-1.32-1.657-2.599-2.462-3.97h-0.096c-0.756,1.371-1.562,2.599-2.413,3.97l-3.309,5.157h-4.588l8.139-11.68l-7.756-11.207
				H84.959z"/>
		</g>
	</g>
</g>
</svg>
